<?xml version="1.0" encoding="UTF-8"?><svg id="Layer_2" xmlns="http://www.w3.org/2000/svg" viewBox="0 0 577.32 37.66"><defs><style>.cls-1{fill:#fff;}</style></defs><g id="Layer_1-2"><path class="cls-1" d="m0,0v18.59h8.41v18.59h18.59c10.27,0,18.59-8.32,18.59-18.59V0H0Zm52.04,0v9.3h16.27V0h-16.27Zm32.76,0c-5.78,0-10.46,4.68-10.46,10.46,0,2.15.65,4.15,1.76,5.81h-1.76v20.92h26.73c5.78,0,10.46-4.68,10.46-10.46,0-2.15-.65-4.15-1.76-5.81h1.76V0h-26.73Zm111.6,0v37.19h37.19V0h-16.27v20.92L196.4,0Zm43.5,0v9.3h10.46v27.89h16.27V9.3h10.46V0h-37.19Zm43.5,0v9.3h16.27V0h-16.27Zm22.3,0v37.19h37.19V0h-16.27v20.92L305.7,0Zm43.5,0v18.59c0,10.27,8.32,18.59,18.59,18.59s18.59-8.33,18.59-18.59V0h-37.19Zm43.5,0v9.3h16.27V0h-16.27Zm22.3,0v9.3h10.46v27.89h16.27V9.3h10.46V0h-37.19Zm121.14,0l-18.59,37.19h37.19L536.15,0Zm24.91,0v9.3h16.27V0h-16.27ZM136.43.01c-4.76,0-9.52,1.81-13.15,5.45-.91.91-1.7,1.89-2.38,2.92-.15.23-.29.45-.43.68-.05.08-.1.17-.14.25,0,.01-.01.02-.02.03-.1.17-.19.34-.29.52-.03.05-.06.11-.09.16,0,0,0,.01,0,.02-.25.49-.49.99-.7,1.49-.03.08-.06.16-.09.24,0,.01-.01.03-.02.04-.07.17-.13.34-.19.5-.03.07-.05.15-.08.22-.09.26-.17.52-.25.78-.07.25-.14.51-.21.76-.03.1-.05.21-.07.31,0,.01,0,.03-.01.04-.03.14-.06.28-.09.42-.02.1-.04.21-.06.31,0,0,0,0,0,0-.1.53-.18,1.06-.23,1.6,0,.06-.01.13-.02.19-.02.2-.03.41-.04.61,0,.08-.01.16-.01.24-.02.54-.02,1.08,0,1.62,0,.08,0,.16.01.24,0,.01,0,.02,0,.03.01.19.02.39.04.58,0,.06.01.13.02.19,0,0,0,0,0,.01.05.53.13,1.06.23,1.59.02.1.04.21.06.31.03.16.07.31.1.47.02.1.04.19.07.29,0,0,0,.01,0,.02.06.25.13.51.21.76.17.57.37,1.14.6,1.7.45,1.12,1.02,2.2,1.7,3.23.68,1.03,1.48,2.01,2.38,2.92,7.26,7.26,19.03,7.26,26.3,0l-13.15-13.15,13.15-13.15C145.95,1.83,141.19.01,136.43.01h0ZM171.35.01c-10.27,0-18.59,8.32-18.59,18.59h0c.02,4.93,1.99,9.64,5.48,13.11l-.03.03c.3.3.61.59.93.86.03.03.07.06.1.08,6.96,6,17.3,5.99,24.26-.01.02-.02.05-.04.07-.06.32-.28.64-.57.94-.87s.58-.6.85-.91c.04-.04.07-.09.11-.13,3.19-3.71,4.68-8.39,4.46-13-.01-.3-.04-.59-.06-.89,0-.01,0-.03,0-.04,0-.06-.02-.13-.02-.19-.03-.24-.05-.48-.09-.72,0,0,0-.01,0-.02-.44-2.96-1.59-5.82-3.46-8.33-.04-.05-.07-.1-.11-.14-.15-.19-.3-.39-.45-.58-.06-.08-.13-.15-.2-.23-.13-.16-.26-.31-.4-.46C181.6,2.23,176.6.01,171.35.01h0Zm287.15.04v9.3c0,7.35,4.27,13.7,10.46,16.72v11.17h16.27v-11.17c6.19-3.02,10.46-9.37,10.46-16.72V.05h-37.19ZM52.04,13.95v23.24h16.27V13.95h-16.27Zm231.36,0v23.24h16.27V13.95h-16.27Zm109.3,0v23.24h16.27V13.95h-16.27Zm168.35,0v23.24h16.27V13.95h-16.27Zm-59.05,14.03v9.69h9.69v-9.69h-9.69Z"/></g></svg>