<?xml version="1.0" encoding="UTF-8"?><svg xmlns="http://www.w3.org/2000/svg" viewBox="0 0 271.85 307.99"><defs><style>.d{fill:#5dcaf4;}</style></defs><g id="a"/><g id="b"><g id="c"><path class="d" d="M271.84,85.1l-.02-.48-.04-.49-.06-.49-.08-.52-.1-.51-.11-.5-.13-.5-.15-.5-.16-.5-.18-.49-.19-.49-.21-.49-.22-.49-.24-.48-.25-.48-.28-.5-.28-.47-.31-.5-.33-.49-.34-.47-.35-.46-.36-.45-.37-.43-.38-.42-.39-.4-.38-.37-.4-.35-.38-.32-.39-.3-.37-.27-.38-.25-.38-.23L144.47,1.98l-.07-.04-.41-.22-.42-.21-.46-.2-.47-.19-.48-.17-.49-.16-.5-.14-.54-.14-.54-.12-.52-.1-.53-.08-.54-.07-.54-.06-.54-.04-.54-.03h-1.66l-.56,.04-.54,.05-.59,.07-.59,.09-.58,.1-.57,.12-.54,.13-.53,.15-.52,.17-.5,.18-.49,.2-.46,.21-.42,.21-.41,.22L8.55,70.58l-.06,.03-.4,.24-.39,.26-.41,.29-.4,.31-.39,.33-.39,.35-.38,.37-.39,.4-.38,.42-.35,.41-.34,.42-.33,.43-.32,.44-.31,.45-.3,.46-.28,.47-.27,.48-.02,.03-.26,.5-.25,.5-.24,.51-.22,.5-.22,.55-.2,.55-.18,.55-.15,.53-.13,.53-.11,.53-.09,.53-.07,.52-.05,.5-.03,.47v.46l-.25,137.69v.53l.04,.49,.05,.49,.07,.5,.09,.52,.11,.51,.12,.5,.14,.5,.16,.5,.17,.5,.19,.5,.2,.49,.22,.49,.23,.49,.24,.48,.26,.47,.27,.47h0l5.68,5.94h0l119.12,69.06,.31,.18,.42,.22,.46,.21,.46,.19,.46,.17,.47,.16,.48,.15,.49,.13,.5,.12,.5,.1,.51,.09,.55,.08,.55,.07,.56,.05,.56,.04,.56,.02h1.06l.59-.03,.59-.04,.59-.06,.58-.08,.58-.1,.57-.11,.56-.13,.5-.13,.5-.15,.48-.16,.45-.17,.44-.18,.42-.19,.41-.21,.4-.22,119.36-68.63,.3-.18,.4-.26,.41-.29,.4-.3,.38-.31,.37-.33,.37-.34,.36-.36,.35-.37,.34-.38,.33-.4,.34-.43,.33-.44,.32-.46,.31-.47,.3-.47,.29-.48,.02-.03,.24-.43,.28-.53,.26-.54,.24-.54,.22-.54,.21-.55,.18-.52,.17-.54,.14-.5,.12-.5,.1-.5,.08-.47,.06-.47,.05-.46,.03-.46v-.45l.26-137.69v-.29Zm-81.2,173.86c-4.52,0-8.65-1.75-11.72-4.6l-40.45,22.98c-1.51,.86-3.37,.86-4.89,0L28.42,217.71c-1.55-.88-2.51-2.52-2.51-4.31V94.46c0-1.78,.95-3.42,2.49-4.3l43.78-25.02c-1.4-7.36,2.14-15.06,9.15-18.61,8.49-4.3,18.88-.9,23.18,7.59,4.3,8.49,.9,18.88-7.59,23.18-6.9,3.5-15.05,1.91-20.17-3.37l-40.94,23.4v113.18l100.22,56.82,37.87-21.51c-.32-1.32-.5-2.7-.5-4.12,0-9.52,7.73-17.25,17.25-17.25s17.25,7.73,17.25,17.25-7.73,17.25-17.25,17.25Zm55.29-45.44c0,1.76-.94,3.39-2.46,4.28-1.52,.89-3.4,.9-4.93,.03l-102.63-58.13-37.93,21.48c2.3,8.76-2.61,17.91-11.33,20.76-9.05,2.96-18.8-1.99-21.75-11.04-2.96-9.05,1.99-18.8,11.04-21.75,6.07-1.98,12.45-.41,16.89,3.57,13.55-7.67,27.09-15.34,40.64-23.01,1.54-.87,3.34-.81,4.88,0l97.67,55.32V97.35l-94.69-53.87v44.38c6.81,2.31,11.72,8.76,11.72,16.34,0,9.52-7.73,17.25-17.25,17.25s-17.25-7.73-17.25-17.25c0-8.01,5.47-14.75,12.87-16.69V34.98c0-1.76,.94-3.39,2.46-4.28,1.52-.89,3.4-.9,4.94-.02l104.59,59.5c1.55,.88,2.5,2.52,2.5,4.3v119.04Z"/></g></g></svg>