<?xml version="1.0" encoding="UTF-8"?><svg id="Layer_2" xmlns="http://www.w3.org/2000/svg" viewBox="0 0 299.39 81.87"><defs><style>.cls-1,.cls-2{fill:#00ddc7;}.cls-2{font-family:Poppins-Bold, Poppins;font-size:18px;font-weight:700;letter-spacing:.08em;}</style></defs><g id="Layer_1-2"><path d="m116.33,17.55c-5.27,0-8.79,2.37-10.75,5.48v-4.8h-9.06v35.15h9.06v-19.2c0-5.14,2.84-8.52,7.5-8.52s7.5,3.38,7.5,8.52v19.2h9.06v-20.69c0-10.68-6.09-15.14-13.32-15.14Z"/><path d="m151.65,32.9l-3.92-1.49c-2.77-.95-3.65-2.23-3.65-3.72,0-1.69,1.42-3.04,3.79-3.04,1.89,0,3.72.88,4.67,3.72l7.1-1.83c-1.15-5.41-5.81-8.99-12.17-8.99s-12.17,3.79-12.17,10.07c0,4.26,2.43,7.98,8.25,10.07l4.33,1.62c2.77,1.01,3.85,2.23,3.85,3.92,0,2.5-2.23,3.65-4.53,3.65-3.45,0-5.14-2.37-5.81-4.66l-7.23,1.96c1.08,6.49,6.22,9.87,13.18,9.87,7.37,0,13.39-3.79,13.39-10.82,0-6.22-4.73-8.79-9.06-10.34Z"/><path d="m244.05,17.55c-5.27,0-8.79,2.37-10.75,5.48V5.39h-9.06v48h9.06v-19.2c0-5.14,2.84-8.52,7.5-8.52s7.5,3.38,7.5,8.52v19.2h9.06v-20.69c0-10.68-6.08-15.14-13.32-15.14Z"/><path d="m275.09,42.16v-16.7h7.23v-7.23h-7.23v-8.99h-9.13v8.99h-5v7.23h5v18.19c0,7.23,4.33,10.14,10.28,10.14,2.23,0,4.8-.41,6.15-1.62v-6.96c-1.28.41-2.5.54-3.31.54-2.97,0-3.99-1.76-3.99-3.58Z"/><path d="m294.18,43.36c-2.84,0-5.21,2.1-5.21,5.21s2.37,5.21,5.21,5.21,5.21-2.1,5.21-5.21-2.43-5.21-5.21-5.21Z"/><path d="m294.18,35.93c2.77,0,5.21-2.1,5.21-5.21s-2.43-5.21-5.21-5.21-5.21,2.1-5.21,5.21,2.37,5.21,5.21,5.21Z"/><path class="cls-1" d="m62.63,19.61v-.11s-.01-.11-.01-.11v-.11s-.03-.12-.03-.12l-.02-.12-.03-.11-.03-.11-.03-.11-.04-.11-.04-.11-.04-.11-.05-.11-.05-.11-.05-.11-.06-.11-.06-.11-.06-.11-.07-.11-.08-.11-.08-.11-.08-.11-.08-.1-.09-.1-.09-.1-.09-.09-.09-.08-.09-.08-.09-.07-.09-.07-.09-.06-.09-.06-.09-.05L33.29.46h-.02s-.09-.06-.09-.06l-.1-.05-.11-.05-.11-.04-.11-.04-.11-.04-.12-.03-.12-.03-.12-.03-.12-.02-.12-.02-.12-.02h-.12s-.13-.02-.13-.02h-.13s-.13,0-.13,0h-.13s0,0,0,0h-.13s-.13.01-.13.01h-.13s-.14.03-.14.03l-.14.02-.13.02-.13.03-.12.03-.12.03-.12.04-.12.04-.11.05-.11.05-.1.05-.09.05L1.97,16.26h-.01s-.09.06-.09.06l-.09.06-.09.07-.09.07-.09.08-.09.08-.09.08-.09.09-.09.1-.08.09-.08.1-.08.1-.07.1-.07.1-.07.11-.07.11-.06.11h0s-.06.12-.06.12l-.06.12-.05.12-.05.12-.05.13-.05.13-.04.13-.04.12-.03.12-.03.12-.02.12-.02.12v.11s-.02.11-.02.11v.11s-.06,31.72-.06,31.72h0s0,.12,0,.12v.11s.02.11.02.11l.02.11.02.12.03.12.03.11.03.11.04.11.04.11.04.11.05.11.05.11.05.11.06.11.06.11.06.11h0l1.31,1.37h0s27.44,15.91,27.44,15.91l.07.04.1.05.11.05.11.04.11.04.11.04.11.03.11.03.11.03.12.02.12.02.13.02.13.02h.13s.13.02.13.02h.13s.13,0,.13,0h.11s.14,0,.14,0h.14s.14-.02.14-.02l.13-.02.13-.02.13-.03.13-.03.12-.03.11-.03.11-.04.1-.04.1-.04.1-.04.09-.05.09-.05,27.5-15.81.07-.04.09-.06.1-.07.09-.07.09-.07.09-.08.08-.08.08-.08.08-.09.08-.09.08-.09.08-.1.08-.1.07-.1.07-.11.07-.11.07-.11h0s.05-.11.05-.11l.06-.12.06-.12.06-.12.05-.13.05-.13.04-.12.04-.13.03-.12.03-.12.02-.12.02-.11v-.11s.03-.11.03-.11v-.11s0-.1,0-.1l.06-31.72v-.07Zm-18.71,40.05c-1.04,0-1.99-.4-2.7-1.06l-9.32,5.29c-.35.2-.78.2-1.13,0l-24.23-13.74c-.36-.2-.58-.58-.58-.99v-27.4c0-.41.22-.79.57-.99l10.09-5.76c-.32-1.7.49-3.47,2.11-4.29,1.96-.99,4.35-.21,5.34,1.75.99,1.96.21,4.35-1.75,5.34-1.59.81-3.47.44-4.65-.78l-9.43,5.39v26.08l23.09,13.09,8.73-4.96c-.07-.3-.11-.62-.11-.95,0-2.19,1.78-3.97,3.97-3.97s3.97,1.78,3.97,3.97-1.78,3.97-3.97,3.97Zm12.74-10.47c0,.41-.22.78-.57.99-.35.2-.78.21-1.14,0l-23.64-13.39-8.74,4.95c.53,2.02-.6,4.13-2.61,4.78-2.08.68-4.33-.46-5.01-2.54-.68-2.08.46-4.33,2.54-5.01,1.4-.46,2.87-.09,3.89.82,3.12-1.77,6.24-3.53,9.36-5.3.35-.2.77-.19,1.12,0l22.5,12.75v-24.8l-21.81-12.41v10.22c1.57.53,2.7,2.02,2.7,3.77,0,2.19-1.78,3.97-3.97,3.97s-3.97-1.78-3.97-3.97c0-1.84,1.26-3.4,2.97-3.84v-12.11c0-.41.22-.78.57-.99.35-.2.78-.21,1.14,0l24.1,13.71c.36.2.58.58.58.99v27.42Z"/><path d="m208.89,18.23v4.73h-.41c-.88-1.96-4.8-5.41-11.02-5.41-8.11,0-16.9,6.08-16.9,18.25s8.79,18.25,16.9,18.25c6.22,0,10.14-3.45,11.02-5.41h.41v2.7c0,5.34-4.33,8.52-11.09,8.52-3.45,0-6.96-.88-8.59-1.96v7.37c2.1,1.35,6.15,2.16,10.21,2.16,7.98,0,18.52-3.24,18.52-16.7V18.23h-9.06Zm-.42,21.45c-1.43,4.11-5.16,6.27-9.18,6.27-.04,0-.08,0-.12,0-.04,0-.08,0-.11,0-5.53,0-10.14-4.08-10.14-10.14s4.61-10.14,10.14-10.14c.04,0,.08,0,.11,0,.04,0,.08,0,.12,0,4.02,0,7.75,2.15,9.18,6.27.46,1.17.72,2.47.72,3.87s-.26,2.71-.72,3.87Z"/><path d="m166.11,18.15v35.23h9.06V18.15c-1.35.67-2.89,1.05-4.53,1.05s-3.18-.38-4.53-1.05Z"/><path d="m81,18.15v35.23h9.06V18.15c-1.35.67-2.89,1.05-4.53,1.05s-3.18-.38-4.53-1.05Z"/><path d="m85.53,5.22c-2.84,0-5.21,2.1-5.21,5.21s2.37,5.21,5.21,5.21,5.21-2.1,5.21-5.21-2.43-5.21-5.21-5.21Z"/><path d="m170.64,5.22c-2.84,0-5.21,2.1-5.21,5.21s2.37,5.21,5.21,5.21,5.21-2.1,5.21-5.21-2.43-5.21-5.21-5.21Z"/><text class="cls-2" transform="translate(80.32 70.96)"><tspan x="0" y="0">ELEVATE</tspan></text></g></svg>